<svg xmlns="http://www.w3.org/2000/svg" viewBox="0 0 900 500" style="font:12px sans-serif">
<line x1="70" y1="450.0" x2="870" y2="450.0" stroke="#ddd" stroke-width="1"/>
<text x="62" y="454.0" text-anchor="end" fill="#555">10</text>
<line x1="70" y1="341.2" x2="870" y2="341.2" stroke="#ddd" stroke-width="1"/>
<text x="62" y="345.2298390313718" text-anchor="end" fill="#555">50</text>
<line x1="70" y1="294.4" x2="870" y2="294.4" stroke="#ddd" stroke-width="1"/>
<text x="62" y="298.3850804843141" text-anchor="end" fill="#555">100</text>
<line x1="70" y1="185.6" x2="870" y2="185.6" stroke="#ddd" stroke-width="1"/>
<text x="62" y="189.61491951568587" text-anchor="end" fill="#555">500</text>
<line x1="70" y1="138.8" x2="870" y2="138.8" stroke="#ddd" stroke-width="1"/>
<text x="62" y="142.77016096862815" text-anchor="end" fill="#555">1k</text>
<line x1="70" y1="30.0" x2="870" y2="30.0" stroke="#ddd" stroke-width="1"/>
<text x="62" y="34.0" text-anchor="end" fill="#555">5k</text>
<text x="70.0" y="466" text-anchor="middle" fill="#555">1</text>
<line x1="136.7" y1="30" x2="136.7" y2="450" stroke="#ddd" stroke-width="1"/>
<text x="136.7" y="466" text-anchor="middle" fill="#555">2</text>
<line x1="203.3" y1="30" x2="203.3" y2="450" stroke="#ddd" stroke-width="1"/>
<text x="203.3" y="466" text-anchor="middle" fill="#555">4</text>
<line x1="270.0" y1="30" x2="270.0" y2="450" stroke="#ddd" stroke-width="1"/>
<text x="270.0" y="466" text-anchor="middle" fill="#555">8</text>
<line x1="336.7" y1="30" x2="336.7" y2="450" stroke="#ddd" stroke-width="1"/>
<text x="336.7" y="466" text-anchor="middle" fill="#555">16</text>
<line x1="403.3" y1="30" x2="403.3" y2="450" stroke="#ddd" stroke-width="1"/>
<text x="403.3" y="466" text-anchor="middle" fill="#555">32</text>
<line x1="470.0" y1="30" x2="470.0" y2="450" stroke="#ddd" stroke-width="1"/>
<text x="470.0" y="466" text-anchor="middle" fill="#555">64</text>
<line x1="536.7" y1="30" x2="536.7" y2="450" stroke="#ddd" stroke-width="1"/>
<text x="536.7" y="466" text-anchor="middle" fill="#555">128</text>
<line x1="603.3" y1="30" x2="603.3" y2="450" stroke="#ddd" stroke-width="1"/>
<text x="603.3" y="466" text-anchor="middle" fill="#555">256</text>
<line x1="670.0" y1="30" x2="670.0" y2="450" stroke="#ddd" stroke-width="1"/>
<text x="670.0" y="466" text-anchor="middle" fill="#555">512</text>
<line x1="736.7" y1="30" x2="736.7" y2="450" stroke="#ddd" stroke-width="1"/>
<text x="736.7" y="466" text-anchor="middle" fill="#555">1k</text>
<line x1="803.3" y1="30" x2="803.3" y2="450" stroke="#ddd" stroke-width="1"/>
<text x="803.3" y="466" text-anchor="middle" fill="#555">2k</text>
<text x="870.0" y="466" text-anchor="middle" fill="#555">4k</text>
<line x1="70" y1="30" x2="70" y2="450" stroke="#333" stroke-width="1.5"/>
<line x1="70" y1="450" x2="870" y2="450" stroke="#333" stroke-width="1.5"/>
<text x="450" y="496" text-anchor="middle" fill="#333" font-size="13">M (num_tokens)</text>
<text x="14" y="250" text-anchor="middle" fill="#333" font-size="13" transform="rotate(-90,14,250)">Time (µs)</text>
<text x="450" y="18" text-anchor="middle" fill="#222" font-size="14" font-weight="bold">AWQ GEMM Microbenchmark (K=4096, N=4096, group_size=128)</text>
<polyline points="70.0,387.8 136.7,389.4 203.3,388.1 270.0,394.3 336.7,392.8 403.3,389.7 470.0,363.6 536.7,326.6 603.3,287.3 670.0,244.9 736.7,198.0 803.3,144.8 870.0,99.8" fill="none" stroke="#e74c3c" stroke-width="2" stroke-linejoin="round"/>
<circle cx="870.0" cy="99.8" r="3.5" fill="#e74c3c"/>
<polyline points="70.0,295.8 136.7,295.3 203.3,281.9 270.0,293.1 336.7,293.3 403.3,291.5 470.0,291.7 536.7,293.6 603.3,267.8 670.0,222.9 736.7,173.1 803.3,121.1 870.0,73.3" fill="none" stroke="#3498db" stroke-width="2" stroke-linejoin="round"/>
<circle cx="870.0" cy="73.3" r="3.5" fill="#3498db"/>
<polyline points="70.0,285.2 136.7,283.7 203.3,284.6 270.0,284.1 336.7,284.4 403.3,282.6 470.0,262.6 536.7,286.5 603.3,286.7 670.0,266.8 736.7,229.4 803.3,190.3 870.0,148.1" fill="none" stroke="#2ecc71" stroke-width="2" stroke-linejoin="round"/>
<circle cx="870.0" cy="148.1" r="3.5" fill="#2ecc71"/>
<polyline points="70.0,390.3 136.7,391.1 203.3,396.1 270.0,394.6 336.7,392.8 403.3,392.5 470.0,359.4 536.7,362.7 603.3,326.4 670.0,286.0 736.7,238.7 803.3,194.5 870.0,151.1" fill="none" stroke="#f39c12" stroke-width="2" stroke-linejoin="round"/>
<circle cx="870.0" cy="151.1" r="3.5" fill="#f39c12"/>
<line x1="710" y1="42" x2="730" y2="42" stroke="#e74c3c" stroke-width="2"/>
<circle cx="720" cy="42" r="3" fill="#e74c3c"/>
<text x="736" y="46" fill="#333">awq_gemm</text>
<line x1="710" y1="62" x2="730" y2="62" stroke="#3498db" stroke-width="2"/>
<circle cx="720" cy="62" r="3" fill="#3498db"/>
<text x="736" y="66" fill="#333">Triton</text>
<line x1="710" y1="82" x2="730" y2="82" stroke="#2ecc71" stroke-width="2"/>
<circle cx="720" cy="82" r="3" fill="#2ecc71"/>
<text x="736" y="86" fill="#333">deq+cuBLAS</text>
<line x1="710" y1="102" x2="730" y2="102" stroke="#f39c12" stroke-width="2"/>
<circle cx="720" cy="102" r="3" fill="#f39c12"/>
<text x="736" y="106" fill="#333">Marlin</text>
</svg>